<svg id="Layer_1" data-name="Layer 1" xmlns="http://www.w3.org/2000/svg" viewBox="0 0 100 100"><defs><style>.cls-1{fill:#fff;}.cls-2{fill:#f2642c;}.cls-3{fill:#f6b2d0;}.cls-4{opacity:0.3;}.cls-5{fill:#242568;}.cls-6{fill:#4b4b4b;}.cls-7{fill:#f99c2a;}.cls-8{opacity:0.5;}.cls-9{fill:#ef4e8a;}</style></defs><rect class="cls-1" width="100" height="100" rx="18.98"/><path class="cls-2" d="M318.35,177.88c-5.7,4.8-8.5,12.5-8.5,12.5-7.8-11.8-1.5-20.4.2-22.3a1.2,1.2,0,0,1,.4-.4C317.35,169.78,318.35,177.88,318.35,177.88Z" transform="translate(-281.8 -140.1)"/><path class="cls-2" d="M318.35,177.88c-5.7,4.8-8.5,12.5-8.5,12.5s-.9-3.7,2.4-8.4a1.23,1.23,0,0,0,.2-1,3.9,3.9,0,0,1,.1-2.8.9.9,0,0,0-.1-1.1,4.1,4.1,0,0,1-.9-3.4,1.08,1.08,0,0,1,1-.8,3.08,3.08,0,0,1,1-.1.64.64,0,0,0,.6-.8c-.5-1.2-1.8-3.4-4-3.8a1.2,1.2,0,0,1,.4-.4C317.35,169.78,318.35,177.88,318.35,177.88Z" transform="translate(-281.8 -140.1)"/><path class="cls-2" d="M310.45,167.68s-9.5,9.2-.6,22.7c0,0,2.8-7.7,8.5-12.5C318.35,177.88,317.35,169.78,310.45,167.68Z" transform="translate(-281.8 -140.1)"/><path class="cls-2" d="M318.35,175.68a6.07,6.07,0,0,0-5.5-1.6,2.78,2.78,0,0,0,1.6,3.2s-2.1,3.1.5,4.7a12,12,0,0,1,4.5-4.5A4.8,4.8,0,0,0,318.35,175.68Z" transform="translate(-281.8 -140.1)"/><path class="cls-2" d="M314.45,177.28a2.91,2.91,0,0,1,1.1-.8" transform="translate(-281.8 -140.1)"/><path class="cls-2" d="M314.05,177c.1-.1.1-.1.2-.1a.35.35,0,0,1,.2-.1c.1-.1.2-.1.4-.2a.6.6,0,0,1,.4-.1h.4l-.3.3c-.1.1-.1.2-.2.3s-.1.2-.2.2l-.1.2Z" transform="translate(-281.8 -140.1)"/><path class="cls-2" d="M318.35,175.68a6.07,6.07,0,0,0-5.5-1.6,2.78,2.78,0,0,0,1.6,3.2s-2.1,3.1.5,4.7a12,12,0,0,1,4.5-4.5A4.8,4.8,0,0,0,318.35,175.68Z" transform="translate(-281.8 -140.1)"/><path class="cls-2" d="M327.35,174.48a22.56,22.56,0,0,0-8.6,3.2h0l-.4.2h0c-2.2-9.2-7.8-10.2-7.8-10.2a14,14,0,0,1,7.3.8A33.87,33.87,0,0,1,327.35,174.48Z" transform="translate(-281.8 -140.1)"/><path class="cls-2" d="M327.35,174.48a22.56,22.56,0,0,0-8.6,3.2c1.4-1,5.7-4.6-.9-9.1A32.31,32.31,0,0,1,327.35,174.48Z" transform="translate(-281.8 -140.1)"/><path class="cls-2" d="M311.35,167.58h0c-.3,0-.5.1-.8.1,0,0,5.6,1,7.8,10.2h0a1.09,1.09,0,0,1,.4-.2h0a6.42,6.42,0,0,0,1-.6C316.85,168.28,311.35,167.58,311.35,167.58Z" transform="translate(-281.8 -140.1)"/><path class="cls-2" d="M327.35,174.48s-8.9-8.3-16.8-6.8c0,0,5.6,1,7.8,10.2A23,23,0,0,1,327.35,174.48Z" transform="translate(-281.8 -140.1)"/><path class="cls-2" d="M345.35,177.88c5.7,4.8,8.5,12.5,8.5,12.5,7.8-11.8,1.5-20.4-.2-22.3a1.2,1.2,0,0,0-.4-.4C346.35,169.78,345.35,177.88,345.35,177.88Z" transform="translate(-281.8 -140.1)"/><path class="cls-2" d="M345.35,177.88c5.7,4.8,8.5,12.5,8.5,12.5s.9-3.7-2.4-8.4a1.23,1.23,0,0,1-.2-1,3.9,3.9,0,0,0-.1-2.8.9.9,0,0,1,.1-1.1,4.1,4.1,0,0,0,.9-3.4,1.08,1.08,0,0,0-1-.8,3.08,3.08,0,0,0-1-.1.64.64,0,0,1-.6-.8c.5-1.2,1.8-3.4,4-3.8a1.2,1.2,0,0,0-.4-.4C346.35,169.78,345.35,177.88,345.35,177.88Z" transform="translate(-281.8 -140.1)"/><path class="cls-2" d="M353.15,167.68s9.5,9.2.6,22.7c0,0-2.8-7.7-8.5-12.5C345.35,177.88,346.35,169.78,353.15,167.68Z" transform="translate(-281.8 -140.1)"/><path class="cls-2" d="M345.25,175.68a6.07,6.07,0,0,1,5.5-1.6,2.78,2.78,0,0,1-1.6,3.2s2.1,3.1-.5,4.7a12,12,0,0,0-4.5-4.5A7.14,7.14,0,0,1,345.25,175.68Z" transform="translate(-281.8 -140.1)"/><path class="cls-2" d="M349.25,177.28a2.91,2.91,0,0,0-1.1-.8" transform="translate(-281.8 -140.1)"/><path class="cls-2" d="M348.85,177.58l-.1-.2a.22.22,0,0,0-.2-.2c0-.1-.1-.2-.2-.3l-.2-.3a.3.3,0,0,1,.4,0c.1,0,.3.1.4.1s.2.1.4.2.1.1.2.1.1.1.2.1Z" transform="translate(-281.8 -140.1)"/><path class="cls-2" d="M345.25,175.68a6.07,6.07,0,0,1,5.5-1.6,2.78,2.78,0,0,1-1.6,3.2s2.1,3.1-.5,4.7a12,12,0,0,0-4.5-4.5A7.14,7.14,0,0,1,345.25,175.68Z" transform="translate(-281.8 -140.1)"/><path class="cls-2" d="M336.35,174.48a22.56,22.56,0,0,1,8.6,3.2h0l.4.2h0c2.2-9.2,7.8-10.2,7.8-10.2a14,14,0,0,0-7.3.8A32.15,32.15,0,0,0,336.35,174.48Z" transform="translate(-281.8 -140.1)"/><path class="cls-2" d="M336.35,174.48a22.56,22.56,0,0,1,8.6,3.2c-1.4-1-5.7-4.6.9-9.1A30.75,30.75,0,0,0,336.35,174.48Z" transform="translate(-281.8 -140.1)"/><path class="cls-2" d="M352.35,167.58h0c.3,0,.5.1.8.1,0,0-5.6,1-7.8,10.2h0a1.09,1.09,0,0,0-.4-.2h0a6.42,6.42,0,0,1-1-.6C346.75,168.28,352.35,167.58,352.35,167.58Z" transform="translate(-281.8 -140.1)"/><path class="cls-2" d="M336.35,174.48s8.9-8.3,16.8-6.8c0,0-5.6,1-7.8,10.2A23,23,0,0,0,336.35,174.48Z" transform="translate(-281.8 -140.1)"/><path class="cls-3" d="M318.35,177.88c-5.7,4.8-8.5,12.5-8.5,12.5-7.8-11.8-1.5-20.4.2-22.3a1.2,1.2,0,0,1,.4-.4C317.35,169.78,318.35,177.88,318.35,177.88Z" transform="translate(-281.8 -140.1)"/><g class="cls-4"><path class="cls-5" d="M318.35,177.88c-5.7,4.8-8.5,12.5-8.5,12.5s-.9-3.7,2.4-8.4a1.23,1.23,0,0,0,.2-1,3.9,3.9,0,0,1,.1-2.8.9.9,0,0,0-.1-1.1,4.1,4.1,0,0,1-.9-3.4,1.08,1.08,0,0,1,1-.8,3.08,3.08,0,0,1,1-.1.64.64,0,0,0,.6-.8c-.5-1.2-1.8-3.4-4-3.8a1.2,1.2,0,0,1,.4-.4C317.35,169.78,318.35,177.88,318.35,177.88Z" transform="translate(-281.8 -140.1)"/></g><path class="cls-6" d="M309.85,190.88c-.2,0-.4-.1-.4-.2-4.7-7.1-4.3-13-3.1-16.8a16.34,16.34,0,0,1,3.8-6.5.44.44,0,0,1,.5-.1,11.28,11.28,0,0,1,6.8,6.1,16,16,0,0,1,1.4,4.5.4.4,0,0,1-.2.4c-5.5,4.7-8.3,12.2-8.3,12.3s-.2.3-.5.3Zm.8-22.6a17.5,17.5,0,0,0-3.3,5.9c-1.5,4.9-.7,10,2.5,15.1a32.41,32.41,0,0,1,8-11.6C317.55,176.48,316.25,170.08,310.65,168.28Z" transform="translate(-281.8 -140.1)"/><path class="cls-7" d="M318.35,175.68a6.07,6.07,0,0,0-5.5-1.6,2.78,2.78,0,0,0,1.6,3.2s-2.1,3.1.5,4.7a12,12,0,0,1,4.5-4.5A4.8,4.8,0,0,0,318.35,175.68Z" transform="translate(-281.8 -140.1)"/><path class="cls-6" d="M314.05,177c.1-.1.1-.1.2-.1a.35.35,0,0,1,.2-.1c.1-.1.2-.1.4-.2a.6.6,0,0,1,.4-.1h.4l-.3.3c-.1.1-.1.2-.2.3s-.1.2-.2.2l-.1.2Z" transform="translate(-281.8 -140.1)"/><path class="cls-6" d="M315,182.48a.37.37,0,0,1-.3-.1c-2.2-1.3-1.7-3.6-.9-5a3.2,3.2,0,0,1-1.4-3.5c0-.2.2-.3.4-.3a6.37,6.37,0,0,1,6,1.8h0a7,7,0,0,1,1.2,1.9.48.48,0,0,1-.2.6,11.92,11.92,0,0,0-4.3,4.3c-.1.1-.2.2-.3.2S315.05,182.48,315,182.48Zm-1.6-8a2.27,2.27,0,0,0,1.4,2.4c.1.1.2.2.2.3a.76.76,0,0,1-.1.4c-.1.1-1.6,2.4-.1,3.8a13.52,13.52,0,0,1,4-4,7.7,7.7,0,0,0-.9-1.3A4.73,4.73,0,0,0,313.35,174.48Z" transform="translate(-281.8 -140.1)"/><path class="cls-7" d="M327.35,174.48a22.56,22.56,0,0,0-8.6,3.2h0l-.4.2h0c-2.2-9.2-7.8-10.2-7.8-10.2a14,14,0,0,1,7.3.8A33.87,33.87,0,0,1,327.35,174.48Z" transform="translate(-281.8 -140.1)"/><g class="cls-4"><path class="cls-5" d="M327.35,174.48a22.56,22.56,0,0,0-8.6,3.2c1.4-1,5.7-4.6-.9-9.1A32.31,32.31,0,0,1,327.35,174.48Z" transform="translate(-281.8 -140.1)"/></g><g class="cls-8"><path class="cls-1" d="M311.35,167.58h0c-.3,0-.5.1-.8.1,0,0,5.6,1,7.8,10.2h0a1.09,1.09,0,0,1,.4-.2h0a6.42,6.42,0,0,0,1-.6C316.85,168.28,311.35,167.58,311.35,167.58Z" transform="translate(-281.8 -140.1)"/></g><path class="cls-6" d="M318.35,178.38h-.2q-.3-.15-.3-.3c-1.1-4.6-3.1-7-4.5-8.2a8,8,0,0,0-2.9-1.6.46.46,0,0,1-.4-.5c0-.3.2-.4.4-.5,3.4-.6,7.5.3,11.8,2.9a35.55,35.55,0,0,1,5.5,4,.44.44,0,0,1,.1.5c-.1.2-.2.3-.4.3a24.57,24.57,0,0,0-8.8,3.3A.37.37,0,0,1,318.35,178.38Zm-5.9-10.4c1.9,1,4.7,3.5,6.2,9.1a21.31,21.31,0,0,1,7.6-2.9c-2-1.7-7.9-6.2-13.8-6.2Z" transform="translate(-281.8 -140.1)"/><path class="cls-3" d="M345.35,177.88c5.7,4.8,8.5,12.5,8.5,12.5,7.8-11.8,1.5-20.4-.2-22.3a1.2,1.2,0,0,0-.4-.4C346.35,169.78,345.35,177.88,345.35,177.88Z" transform="translate(-281.8 -140.1)"/><g class="cls-4"><path class="cls-5" d="M345.35,177.88c5.7,4.8,8.5,12.5,8.5,12.5s.9-3.7-2.4-8.4a1.23,1.23,0,0,1-.2-1,3.9,3.9,0,0,0-.1-2.8.9.9,0,0,1,.1-1.1,4.1,4.1,0,0,0,.9-3.4,1.08,1.08,0,0,0-1-.8,3.08,3.08,0,0,0-1-.1.64.64,0,0,1-.6-.8c.5-1.2,1.8-3.4,4-3.8a1.2,1.2,0,0,0-.4-.4C346.35,169.78,345.35,177.88,345.35,177.88Z" transform="translate(-281.8 -140.1)"/></g><path class="cls-6" d="M353.75,190.88h0a.46.46,0,0,1-.5-.3c0-.1-2.8-7.6-8.3-12.3a.52.52,0,0,1-.2-.4,17,17,0,0,1,1.4-4.5,11.28,11.28,0,0,1,6.8-6.1.44.44,0,0,1,.5.1,16.34,16.34,0,0,1,3.8,6.5c1.2,3.7,1.6,9.7-3.1,16.8C354.15,190.78,354,190.88,353.75,190.88Zm-7.9-13.2a32.41,32.41,0,0,1,8,11.6c3.2-5.1,4-10.2,2.5-15.1a15.52,15.52,0,0,0-3.3-5.9C347.45,170.08,346.05,176.48,345.85,177.68Z" transform="translate(-281.8 -140.1)"/><path class="cls-7" d="M345.25,175.68a6.07,6.07,0,0,1,5.5-1.6,2.78,2.78,0,0,1-1.6,3.2s2.1,3.1-.5,4.7a12,12,0,0,0-4.5-4.5A7.14,7.14,0,0,1,345.25,175.68Z" transform="translate(-281.8 -140.1)"/><path class="cls-6" d="M348.85,177.58l-.1-.2a.22.22,0,0,0-.2-.2c0-.1-.1-.2-.2-.3l-.2-.3a.3.3,0,0,1,.4,0c.1,0,.3.1.4.1s.2.1.4.2.1.1.2.1.1.1.2.1Z" transform="translate(-281.8 -140.1)"/><path class="cls-6" d="M348.65,182.48h-.1c-.1,0-.3-.1-.3-.2A11.92,11.92,0,0,0,344,178a.48.48,0,0,1-.2-.6,9,9,0,0,1,1.2-1.9h0a6.78,6.78,0,0,1,6-1.8c.2,0,.3.2.4.3a3.24,3.24,0,0,1-1.4,3.5c.7,1.3,1.3,3.7-.9,5C348.85,182.38,348.75,182.48,348.65,182.48Zm-3.8-5.2a11.42,11.42,0,0,1,4,4c1.5-1.4,0-3.7-.1-3.8s-.1-.2-.1-.4.1-.2.2-.3a2.42,2.42,0,0,0,1.4-2.4,5.89,5.89,0,0,0-4.7,1.5A6.07,6.07,0,0,0,344.85,177.28Z" transform="translate(-281.8 -140.1)"/><path class="cls-7" d="M336.35,174.48a22.56,22.56,0,0,1,8.6,3.2h0l.4.2h0c2.2-9.2,7.8-10.2,7.8-10.2a14,14,0,0,0-7.3.8A32.15,32.15,0,0,0,336.35,174.48Z" transform="translate(-281.8 -140.1)"/><g class="cls-4"><path class="cls-5" d="M336.35,174.48a22.56,22.56,0,0,1,8.6,3.2c-1.4-1-5.7-4.6.9-9.1A30.75,30.75,0,0,0,336.35,174.48Z" transform="translate(-281.8 -140.1)"/></g><g class="cls-8"><path class="cls-1" d="M352.35,167.58h0c.3,0,.5.1.8.1,0,0-5.6,1-7.8,10.2h0a1.09,1.09,0,0,0-.4-.2h0a6.42,6.42,0,0,1-1-.6C346.75,168.28,352.35,167.58,352.35,167.58Z" transform="translate(-281.8 -140.1)"/></g><path class="cls-6" d="M345.35,178.38a.37.37,0,0,1-.3-.1,21.87,21.87,0,0,0-8.8-3.3c-.2,0-.4-.1-.4-.3a.44.44,0,0,1,.1-.5,35.55,35.55,0,0,1,5.5-4c4.3-2.5,8.4-3.5,11.8-2.9.2.1.4.2.4.5s-.2.4-.4.5a8,8,0,0,0-2.9,1.6c-1.5,1.2-3.4,3.7-4.5,8.2a.32.32,0,0,1-.3.3Zm-7.9-4.2a25.53,25.53,0,0,1,7.6,2.9c1.5-5.6,4.3-8.1,6.2-9.1h-.1C345.35,168,339.45,172.48,337.45,174.18Z" transform="translate(-281.8 -140.1)"/><path class="cls-7" d="M353.75,199.68a4.5,4.5,0,0,1,1.1,1.4,1.08,1.08,0,0,1,0,1.1c-1.6,3.2-6.8,4.9-6.8,4.9a32.42,32.42,0,0,1-16.1,4.4h-.1a33.31,33.31,0,0,1-16.2-4.5s-5.2-1.6-6.8-4.9a1.39,1.39,0,0,1,0-1.1,4.15,4.15,0,0,1,1.1-1.4,10,10,0,0,1-2.7-3.4h0a.94.94,0,0,1,.1-.9,25,25,0,0,0,1.7-2.9h0c.1-.3.3-.6.4-.9s.2-.6.4-1.1.3-1.1.6-1.8h0c.2-.5.4-1.1.6-1.7,1.8-4.4,5.4-10.4,14.2-12.4a25,25,0,0,1,2.9-.5h0a6.6,6.6,0,0,1,1.4-.1,17,17,0,0,1,2.3-.1c6.3,0,10.8,1.7,13.9,4,6.4,4.7,7.6,12,8.4,13.7a26.07,26.07,0,0,0,2.1,3.8,1,1,0,0,1,.1.9A8.06,8.06,0,0,1,353.75,199.68Z" transform="translate(-281.8 -140.1)"/><path class="cls-1" d="M339.25,197.38a3.55,3.55,0,0,1-.9-.4c-.6-.4-2.2-1.2-6.6-1.2s-6,.8-6.6,1.2a2.47,2.47,0,0,1-.9.4,11.46,11.46,0,0,0-8.8,9.7,33.31,33.31,0,0,0,16.2,4.5,33.86,33.86,0,0,0,16.2-4.4C348,207.08,347.45,199.68,339.25,197.38Z" transform="translate(-281.8 -140.1)"/><path class="cls-1" d="M324.05,188.38A3.86,3.86,0,0,0,322,187a.63.63,0,0,1-.5-.6c0-.6.3-1.7,1.6-1.4a2.75,2.75,0,0,1,1.6,1,2.4,2.4,0,0,1,.5,2.2A.62.62,0,0,1,324.05,188.38Z" transform="translate(-281.8 -140.1)"/><path class="cls-1" d="M339.55,188.38a3.86,3.86,0,0,1,2.1-1.4.63.63,0,0,0,.5-.6c0-.6-.3-1.7-1.6-1.4a2.75,2.75,0,0,0-1.6,1,2.4,2.4,0,0,0-.5,2.2A.62.62,0,0,0,339.55,188.38Z" transform="translate(-281.8 -140.1)"/><g class="cls-4"><path class="cls-5" d="M356.45,196.28h0a13.18,13.18,0,0,1-5,1.7c-.6.1-1,.8-.6,1.2a3,3,0,0,1,.5.7,1.06,1.06,0,0,1-.2,1.4,29.13,29.13,0,0,1-38.8,0,1.09,1.09,0,0,1-.2-1.4c.2-.3.4-.5.5-.7a.72.72,0,0,0-.6-1.2,13.18,13.18,0,0,1-5-1.7h0a8.9,8.9,0,0,0,2.7,3.4,4.5,4.5,0,0,0-1.1,1.4,1.08,1.08,0,0,0,0,1.1c1.6,3.2,6.8,4.9,6.8,4.9a33.31,33.31,0,0,0,16.2,4.5h.2a33.31,33.31,0,0,0,16.2-4.5s5.2-1.6,6.8-4.9a1.39,1.39,0,0,0,0-1.1,4.15,4.15,0,0,0-1.1-1.4A8,8,0,0,0,356.45,196.28Z" transform="translate(-281.8 -140.1)"/></g><path class="cls-2" d="M331.85,173.88a17.7,17.7,0,0,0-2.3.1s0,6.6,1.9,10.4a.38.38,0,0,0,.6,0c1.9-3.8,2-10.4,2-10.4A15.48,15.48,0,0,0,331.85,173.88Z" transform="translate(-281.8 -140.1)"/><path class="cls-2" d="M328.15,174.08a56.78,56.78,0,0,1-1.2,6.2c0,.2-.4.2-.5,0a15.47,15.47,0,0,1-1.3-5.7C326.15,174.38,327.15,174.18,328.15,174.08Z" transform="translate(-281.8 -140.1)"/><path class="cls-2" d="M335.55,174.08a56.78,56.78,0,0,0,1.2,6.2c0,.2.4.2.5,0a15,15,0,0,0,1.3-5.7C337.55,174.38,336.55,174.18,335.55,174.08Z" transform="translate(-281.8 -140.1)"/><path class="cls-2" d="M313.85,191.38c-3.8.3-4.8,1-4.8,1,.1-.3.3-.6.4-.9s.2-.6.4-1.1a6.41,6.41,0,0,1,4.1.7C314.05,191.18,314.05,191.38,313.85,191.38Z" transform="translate(-281.8 -140.1)"/><path class="cls-2" d="M313.15,188.68a5.91,5.91,0,0,0-2.7-.1c.2-.5.4-1.1.6-1.7a3.38,3.38,0,0,1,2.3,1.5C313.45,188.58,313.25,188.68,313.15,188.68Z" transform="translate(-281.8 -140.1)"/><path class="cls-2" d="M349.75,191.38c3.8.3,4.8,1,4.8,1-.1-.3-.3-.6-.4-.9s-.2-.6-.4-1.1a6.41,6.41,0,0,0-4.1.7C349.55,191.18,349.55,191.38,349.75,191.38Z" transform="translate(-281.8 -140.1)"/><path class="cls-2" d="M350.45,188.78a5.91,5.91,0,0,1,2.7-.1c-.2-.5-.4-1.1-.6-1.7a3.38,3.38,0,0,0-2.3,1.5C350.25,188.68,350.35,188.78,350.45,188.78Z" transform="translate(-281.8 -140.1)"/><path class="cls-6" d="M353.35,200.08l-.2-.2-.2-.2c-.1-.1-.1-.2-.2-.2s-.1-.2-.2-.3a.85.85,0,0,1,.8,0c.1.1.2.1.4.1s.2.1.3.2Z" transform="translate(-281.8 -140.1)"/><path class="cls-6" d="M347.65,206.68l.6-.5c.2-.2.4-.3.6-.5s.4-.3.6-.5a2.65,2.65,0,0,1,.6-.5c-.1.3-.2.5-.3.8a3,3,0,0,1-.5.7c-.2.2-.3.4-.5.6l-.6.6Z" transform="translate(-281.8 -140.1)"/><path class="cls-6" d="M309.55,199.28c.1-.1.2-.1.3-.2s.2-.1.4-.1.3-.1.4-.1a.6.6,0,0,1,.4.1c-.1.1-.1.2-.2.3s-.1.2-.2.2l-.2.2-.2.2Z" transform="translate(-281.8 -140.1)"/><path class="cls-6" d="M315.25,207.38l-.6-.6a2.65,2.65,0,0,1-.5-.6c-.1-.2-.3-.4-.5-.7a1.91,1.91,0,0,1-.3-.8,2.65,2.65,0,0,0,.6.5c.2.1.4.4.6.5a2.65,2.65,0,0,1,.6.5l.6.5Z" transform="translate(-281.8 -140.1)"/><path class="cls-6" d="M318.65,193.38c.1-.2.2-.3.3-.5s.2-.3.4-.4a5.5,5.5,0,0,1,.9-.7,4.87,4.87,0,0,1,1.1-.4.37.37,0,0,0,.3-.1h.9a5,5,0,0,1,1.2.2,3.7,3.7,0,0,1,1.1.5,6.47,6.47,0,0,1,.9.8c.1.2.2.3.3.5s.1.2.1.3v.3c0,.2-.1.4-.3.4s-.4-.1-.4-.3h0a.1.1,0,0,0-.1-.1c0-.1-.1-.1-.1-.2a.1.1,0,0,0-.1-.1l-.1-.1a.1.1,0,0,0-.1-.1,4.23,4.23,0,0,0-.7-.5,6.89,6.89,0,0,0-.8-.3l-.2-.1c-.1,0-.1,0-.2-.1a4.33,4.33,0,0,0-.5-.1,5.46,5.46,0,0,0-1.8.1l-.9.3a2.18,2.18,0,0,0-.8.5h0a.19.19,0,0,1-.3,0C318.55,193.58,318.55,193.48,318.65,193.38Z" transform="translate(-281.8 -140.1)"/><path class="cls-6" d="M344.65,193.58a3.51,3.51,0,0,0-.8-.5,3.18,3.18,0,0,0-.9-.3,3.67,3.67,0,0,0-1.8-.1,4.33,4.33,0,0,1-.5.1c-.1,0-.1,0-.2.1l-.2.1a6.89,6.89,0,0,0-.8.3,3,3,0,0,0-.7.5.1.1,0,0,1-.1.1l-.1.1a.1.1,0,0,1-.1.1c0,.1-.1.1-.1.2a.1.1,0,0,1-.1.1h0c0,.2-.2.3-.4.3s-.3-.2-.3-.4V194a.37.37,0,0,1,.1-.3,2.19,2.19,0,0,1,.3-.5,2.36,2.36,0,0,1,.9-.8,3.7,3.7,0,0,1,1.1-.5,5,5,0,0,1,1.2-.2h.9a.37.37,0,0,1,.3.1,3.58,3.58,0,0,1,1.1.4,2.18,2.18,0,0,1,.9.7l.4.4a2.19,2.19,0,0,1,.3.5c0,.1,0,.2-.1.2a.68.68,0,0,0-.3-.4Z" transform="translate(-281.8 -140.1)"/><g class="cls-8"><path class="cls-1" d="M354,191.08h0c-1.1-2.9-3.2-8.1-8.2-11.8-3.2-2.3-7.6-4-13.9-4a17.7,17.7,0,0,0-2.3.1c-.5,0-1,.1-1.4.1h0a25,25,0,0,0-2.9.5c-8.8,2-12.4,8-14.2,12.4-.2.6-.4,1.1-.6,1.7h0c-.2.6-.7.9-.9,1.3a6.21,6.21,0,0,0,.3-1c.2-.5.3-1.1.6-1.8h0c.2-.5.4-1.1.6-1.7,1.8-4.4,5.4-10.4,14.2-12.4a25,25,0,0,1,2.9-.5h0a6.6,6.6,0,0,1,1.4-.1,17,17,0,0,1,2.3-.1c6.3,0,10.8,1.7,13.9,4C351.65,182.18,353.15,188.78,354,191.08Z" transform="translate(-281.8 -140.1)"/></g><path class="cls-6" d="M332,212h-.2a33.77,33.77,0,0,1-16.4-4.5c-.6-.2-5.5-1.9-7-5.1a1.7,1.7,0,0,1,0-1.4,6.21,6.21,0,0,1,.8-1.2,8.38,8.38,0,0,1-2.4-3.2,1.53,1.53,0,0,1,.2-1.3,26.07,26.07,0,0,0,2.1-3.8c.1-.3.3-.8.5-1.4,1.4-4.5,5.3-16.6,22.3-16.6h0c17.1,0,20.9,12.1,22.3,16.6.2.6.4,1.1.5,1.4a22.52,22.52,0,0,0,2.1,3.8,1.53,1.53,0,0,1,.2,1.3,8.59,8.59,0,0,1-2.4,3.2,6.21,6.21,0,0,1,.8,1.2,1.7,1.7,0,0,1,0,1.4c-1.6,3.2-6.4,4.9-7.1,5.1A34.2,34.2,0,0,1,332,212Zm-.2-1h0a33.71,33.71,0,0,0,15.9-4.4.1.1,0,0,0,.1-.1s5.1-1.6,6.5-4.6a.85.85,0,0,0,0-.7,3.79,3.79,0,0,0-1-1.3.52.52,0,0,1-.2-.4.76.76,0,0,1,.2-.4,8,8,0,0,0,2.5-3.1.66.66,0,0,0-.1-.6,37.17,37.17,0,0,1-2.1-3.9c-.1-.3-.3-.8-.5-1.5-1.4-4.4-5-15.9-21.3-15.9h0c-16.3,0-20,11.5-21.4,15.9-.2.6-.4,1.1-.5,1.5a37.17,37.17,0,0,1-2.1,3.9,1.27,1.27,0,0,0-.1.6,9,9,0,0,0,2.5,3.1.52.52,0,0,1,.2.4.76.76,0,0,1-.2.4,4.84,4.84,0,0,0-1,1.2.85.85,0,0,0,0,.7c1.5,3,6.5,4.6,6.5,4.6a.1.1,0,0,1,.1.1,32.35,32.35,0,0,0,16,4.5Z" transform="translate(-281.8 -140.1)"/><g class="cls-4"><path class="cls-5" d="M338.35,197.78c-3.9,3.4-5.1-.7-5.1-.7h-3.2s-1.2,4.1-5.1.7a2.91,2.91,0,0,0,.3,3.8s1.1,4,6.4,4,6.3-4.1,6.3-4.1A2.71,2.71,0,0,0,338.35,197.78Z" transform="translate(-281.8 -140.1)"/></g><path class="cls-6" d="M331.75,195.18a10.13,10.13,0,0,0-2.4.3.75.75,0,0,0-.5,1,3.24,3.24,0,0,0,5.8,0,.88.88,0,0,0-.5-1A10.65,10.65,0,0,0,331.75,195.18Z" transform="translate(-281.8 -140.1)"/><path class="cls-6" d="M332.25,197.58v.2a.37.37,0,0,0,.1.3.76.76,0,0,0,.2.5,4.7,4.7,0,0,0,.6.9,2.79,2.79,0,0,0,2,.8h.6a1.27,1.27,0,0,0,.6-.1.76.76,0,0,0,.5-.2c.1-.1.3-.2.4-.3a3.79,3.79,0,0,0,1-2h0c0-.1.1-.1.2-.1s.1,0,.1.1a6.37,6.37,0,0,1,.2.7v.7a3.1,3.1,0,0,1-.6,1.3,2.65,2.65,0,0,1-.6.5,6.89,6.89,0,0,1-.8.3,2.2,2.2,0,0,1-.8.1h-.8a2.2,2.2,0,0,1-.8-.1c-.3-.1-.5-.1-.8-.2a3,3,0,0,1-1.3-.9c-.2-.2-.3-.4-.5-.6s-.2-.4-.3-.6a6.37,6.37,0,0,1-.2-.7.37.37,0,0,0-.1-.3v-.4a.47.47,0,0,1,.5-.5c.3.2.6.4.6.6Z" transform="translate(-281.8 -140.1)"/><path class="cls-6" d="M332.25,197.68v.7a2.54,2.54,0,0,1-.2.7l-.3.6a2.65,2.65,0,0,1-.5.6,3.81,3.81,0,0,1-1.3.9,1.88,1.88,0,0,1-.8.2c-.3,0-.5.1-.8.1h-.8c-.3,0-.5-.1-.8-.1s-.5-.2-.8-.3a1.47,1.47,0,0,1-.6-.5,1.94,1.94,0,0,1-.6-1.3v-.7a2.54,2.54,0,0,1,.2-.7c0-.1.1-.1.2-.1l.1.1h0a4.21,4.21,0,0,0,1,2c.1.1.3.2.4.3s.3.1.5.2.4.1.6.1h.6a2.79,2.79,0,0,0,2-.8,7,7,0,0,0,.6-.9c.1-.2.1-.3.2-.5a.37.37,0,0,1,.1-.3v-.3a.44.44,0,0,1,.6-.4C332.05,197.18,332.25,197.38,332.25,197.68Z" transform="translate(-281.8 -140.1)"/><path class="cls-6" d="M336.85,200.58a6.34,6.34,0,0,1-1.1,2.6,5.34,5.34,0,0,1-8,0,5.8,5.8,0,0,1-1.2-2.6s4.3,1.4,5.1-2.9C332.55,202.08,336.85,200.58,336.85,200.58Z" transform="translate(-281.8 -140.1)"/><path class="cls-9" d="M335.75,203.28a5.34,5.34,0,0,1-8,0A5.86,5.86,0,0,1,335.75,203.28Z" transform="translate(-281.8 -140.1)"/><path class="cls-6" d="M331.75,205.58c-4.9,0-5.7-4.8-5.7-4.9s0-.3.2-.4.4-.1.5-.1a4.6,4.6,0,0,0,2.9-.1,3,3,0,0,0,1.5-2.4c0-.2.3-.4.5-.4h0a.46.46,0,0,1,.5.4,3.27,3.27,0,0,0,1.5,2.4,4.6,4.6,0,0,0,2.9.1.44.44,0,0,1,.5.1.76.76,0,0,1,.2.4,5.46,5.46,0,0,1-5.5,4.9Zm-4.4-4.3a4.46,4.46,0,0,0,4.4,3.3h0a4.37,4.37,0,0,0,4.4-3.3,5.12,5.12,0,0,1-2.9-.4,3.12,3.12,0,0,1-1.5-1.5,3.61,3.61,0,0,1-1.5,1.5A4.52,4.52,0,0,1,327.35,201.28Z" transform="translate(-281.8 -140.1)"/><g class="cls-4"><path class="cls-1" d="M331.85,196.18c0,.2-.4.3-.9.4s-.9-.1-.9-.2.4-.3.9-.4S331.85,196,331.85,196.18Z" transform="translate(-281.8 -140.1)"/></g></svg>